<?xml version="1.0" encoding="UTF-8" standalone="no"?>
<!-- Created with Inkscape (http://www.inkscape.org/) -->

<svg
   width="190.28728mm"
   height="172.63489mm"
   viewBox="0 0 190.28728 172.63489"
   version="1.1"
   id="svg1264"
   inkscape:version="1.2.2 (b0a8486541, 2022-12-01)"
   sodipodi:docname="logo.svg"
   xmlns:inkscape="http://www.inkscape.org/namespaces/inkscape"
   xmlns:sodipodi="http://sodipodi.sourceforge.net/DTD/sodipodi-0.dtd"
   xmlns="http://www.w3.org/2000/svg"
   xmlns:svg="http://www.w3.org/2000/svg">
  <sodipodi:namedview
     id="namedview1266"
     pagecolor="#ffffff"
     bordercolor="#000000"
     borderopacity="0.25"
     inkscape:showpageshadow="2"
     inkscape:pageopacity="0.0"
     inkscape:pagecheckerboard="0"
     inkscape:deskcolor="#d1d1d1"
     inkscape:document-units="mm"
     showgrid="false"
     inkscape:zoom="0.76078844"
     inkscape:cx="162.98881"
     inkscape:cy="440.33266"
     inkscape:window-width="1920"
     inkscape:window-height="1007"
     inkscape:window-x="1920"
     inkscape:window-y="0"
     inkscape:window-maximized="1"
     inkscape:current-layer="layer1" />
  <defs
     id="defs1261" />
  <g
     inkscape:label="Layer 1"
     inkscape:groupmode="layer"
     id="layer1"
     transform="translate(-9.0435802,-67.780329)">
    <path
       id="path1639-6-3"
       style="display:inline;fill:#595959;fill-opacity:1;stroke:none;stroke-width:0.308236;stroke-dasharray:none;stroke-opacity:1"
       class="UnoptimicedTransforms"
       inkscape:transform-center-x="28.299092"
       inkscape:transform-center-y="-30.016052"
       d="M 56.255377 130.02473 L 50.507606 133.2926 C 50.507603 133.2926 42.295937 141.70618 39.272097 146.10832 L 50.906752 154.46833 C 45.611414 161.97005 42.761104 170.92415 42.745588 180.10652 C 42.758168 180.48981 42.775766 180.87277 42.798226 181.25561 L 28.422765 181.97945 C 28.445845 182.46264 28.474772 182.94797 28.509592 183.43534 C 28.544412 183.9227 28.584807 184.41213 28.63128 184.90257 C 28.72422 185.88343 28.840421 186.86921 28.97937 187.85574 C 29.04885 188.34901 29.123812 188.84224 29.204644 189.33526 C 29.285474 189.82829 29.372143 190.32113 29.464233 190.81282 C 29.556323 191.30451 29.654374 191.79504 29.757628 192.28428 C 29.860881 192.77353 29.969735 193.26109 30.084055 193.7468 C 30.198376 194.23251 30.31818 194.71688 30.443469 195.19794 C 30.568758 195.679 30.699458 196.15695 30.835619 196.63226 C 30.97178 197.10758 31.113107 197.57959 31.260043 198.04806 C 31.553917 198.98499 31.869191 199.90714 32.205583 200.81007 C 32.37378 201.26153 32.54803 201.70825 32.726711 202.14955 C 32.905392 202.59086 33.08848 203.02648 33.277549 203.45653 C 33.466618 203.88658 33.661123 204.31084 33.860483 204.72853 L 46.914034 198.83514 C 50.942037 207.51669 57.656306 214.67158 66.064668 219.24253 L 59.500247 232.06038 C 64.756954 234.76955 76.173059 241.99445 76.173059 241.99445 L 81.920829 238.72659 L 83.339144 224.50941 C 84.667082 224.63043 85.999867 224.69208 87.333306 224.69365 C 95.549995 224.69065 103.60607 222.41694 110.61208 218.12396 L 112.66329 233.45486 L 118.41106 230.187 C 124.92175 226.00165 131.20097 220.20748 135.39377 214.10356 L 123.75969 205.7434 C 129.05487 198.24191 131.90491 189.2886 131.92059 180.1065 C 131.91972 179.72256 131.91375 179.33836 131.90325 178.95457 L 140.49549 181.50086 L 146.24383 178.23285 C 145.87456 170.50176 143.99514 162.1664 140.80539 155.48335 L 127.78561 161.36149 C 123.75782 152.6695 117.0376 145.50604 108.62037 140.93177 L 115.16619 128.15135 C 108.28625 124.6056 100.12777 122.06498 92.745197 121.48587 L 86.997426 124.75373 L 91.32668 135.70004 C 89.998971 135.57985 88.666996 135.51929 87.333859 135.51849 C 79.116902 135.52149 71.060034 137.7948 64.053791 142.08793 L 56.255377 130.02473 z M 85.885841 165.99209 A 13.320034 13.320034 0 0 1 89.811755 165.40071 A 13.320034 13.320034 0 0 1 103.13209 178.72048 A 13.320034 13.320034 0 0 1 89.812314 192.04082 A 13.320034 13.320034 0 0 1 76.491824 178.72047 A 13.320034 13.320034 0 0 1 85.885841 165.99209 z "
       transform="matrix(0.8453203,0.22895268,-0.22895268,0.8453203,115.19435,-53.773869)" />
    <path
       style="display:inline;fill:#ffffff;fill-opacity:1;stroke:none;stroke-width:0.269946;stroke-dasharray:none;stroke-opacity:1"
       d="m 124.17986,168.2288 5.60691,-1.44637"
       id="path4341-6" />
    <path
       style="display:inline;fill:#ffffff;fill-opacity:1;stroke:none;stroke-width:0.269946;stroke-dasharray:none;stroke-opacity:1"
       d="m 156.98058,169.36487 5.60692,-1.44645"
       id="path4343-7" />
    <path
       style="display:inline;fill:#ffffff;fill-opacity:1;stroke:none;stroke-width:0.269946;stroke-dasharray:none;stroke-opacity:1"
       d="m 175.01904,159.65715 5.60692,-1.44637"
       id="path4345-5" />
    <path
       style="display:inline;fill:#ffffff;fill-opacity:1;stroke:none;stroke-width:0.269946;stroke-dasharray:none;stroke-opacity:1"
       d="m 167.0985,149.92654 5.60692,-1.44637"
       id="path4347-3" />
    <path
       style="display:inline;fill:#ffffff;fill-opacity:1;stroke:none;stroke-width:0.269946;stroke-dasharray:none;stroke-opacity:1"
       d="m 192.40314,131.8194 5.60692,-1.44637"
       id="path4349-5" />
    <path
       style="display:inline;fill:#ffffff;fill-opacity:1;stroke:none;stroke-width:0.269946;stroke-dasharray:none;stroke-opacity:1"
       d="m 193.01496,111.34337 5.60692,-1.44637"
       id="path4351-6" />
    <path
       style="display:inline;fill:#ffffff;fill-opacity:1;stroke:none;stroke-width:0.269946;stroke-dasharray:none;stroke-opacity:1"
       d="m 180.66304,113.33152 5.60688,-1.44633"
       id="path4353-2" />
    <path
       style="display:inline;fill:#ffffff;fill-opacity:1;stroke:none;stroke-width:0.269946;stroke-dasharray:none;stroke-opacity:1"
       d="m 177.59913,82.369097 5.60695,-1.446373"
       id="path4355-9" />
    <path
       style="display:inline;fill:#ffffff;fill-opacity:1;stroke:none;stroke-width:0.269946;stroke-dasharray:none;stroke-opacity:1"
       d="m 160.17226,71.601438 5.60695,-1.44641"
       id="path4357-1" />
    <path
       style="display:inline;fill:#ffffff;fill-opacity:1;stroke:none;stroke-width:0.269946;stroke-dasharray:none;stroke-opacity:1"
       d="m 131.20208,82.447738 5.60695,-1.446374"
       id="path4359-2" />
    <path
       style="display:inline;fill:#ffffff;fill-opacity:1;stroke:none;stroke-width:0.269946;stroke-dasharray:none;stroke-opacity:1"
       d="m 127.37172,70.464723 5.60692,-1.446373"
       id="path4361-7" />
    <path
       id="path974-9"
       style="display:inline;fill:#949494;fill-opacity:1;stroke:none;stroke-width:0.269946;stroke-opacity:1"
       d="m 152.27738,122.65068 a 10.465151,10.465151 0 0 1 -12.83708,7.36538 10.465151,10.465151 0 0 1 -7.36535,-12.83714 10.465151,10.465151 0 0 1 12.83713,-7.36531 10.465151,10.465151 0 0 1 7.3653,12.83707 z m 7.89492,-51.049242 -4.45336,11.690432 a 39.049021,39.049021 0 0 0 -3.33398,-1.067772 39.049021,39.049021 0 0 0 -21.18288,0.223601 l -3.83036,-11.983014 c -6.46181,2.047282 -13.09668,5.507855 -18.0385,9.707681 l 7.92058,9.730645 a 39.049021,39.049021 0 0 0 -12.76847,19.803619 39.049021,39.049021 0 0 0 -0.21866,0.98355 l -12.317694,-2.67934 c -0.09089,0.41348 -0.177969,0.83059 -0.259727,1.25053 -0.08214,0.41975 -0.160096,0.8428 -0.232728,1.26799 -0.145645,0.85045 -0.273418,1.71028 -0.382024,2.57601 -0.05134,0.43291 -0.103437,0.86722 -0.147927,1.30249 -0.04563,0.43522 -0.08404,0.87162 -0.119026,1.30828 -0.03422,0.43695 -0.06465,0.87411 -0.08936,1.3113 -0.02282,0.43695 -0.04563,0.87403 -0.05894,1.31085 -0.01902,0.43689 -0.02282,0.8735 -0.03042,1.3088 -0.0037,0.43522 -0.0025,0.86946 0.0037,1.30243 0.0076,0.43291 0.01902,0.86451 0.03422,1.29418 0.03422,0.85932 0.08936,1.71098 0.166941,2.55127 0.03993,0.42032 0.08366,0.83763 0.133856,1.25163 0.05134,0.41404 0.105332,0.82414 0.166561,1.23091 0.06122,0.40664 0.128533,0.80992 0.201165,1.20863 l 12.383673,-1.99333 a 39.049021,39.049021 0 0 0 11.51624,21.63567 l -8.48408,9.33194 c 5.00391,4.5725 11.31864,8.58857 17.42665,10.76835 l 4.45407,-11.69318 a 39.049021,39.049021 0 0 0 3.33413,1.06998 39.049021,39.049021 0 0 0 21.18221,-0.2236 l 3.83031,11.98302 c 6.46189,-2.04736 13.09673,-5.50787 18.03855,-9.70768 l -7.92055,-9.73066 a 39.049021,39.049021 0 0 0 12.76824,-19.80293 39.049021,39.049021 0 0 0 0.2487,-0.9775 l 12.28751,2.67329 c 1.45793,-6.61978 1.77805,-14.09635 0.61182,-20.47603 l -12.35196,1.98824 A 39.049021,39.049021 0 0 0 169.13746,91.673946 l 8.45936,-9.304735 c -5.00396,-4.572457 -11.31887,-8.587888 -17.42688,-10.76762 z" />
    <path
       style="display:inline;fill:#ffffff;fill-opacity:1;stroke:none;stroke-width:0.269946;stroke-dasharray:none;stroke-opacity:1"
       d="m 169.13974,91.673763 5.607,-1.446332"
       id="path4367-3" />
    <g
       aria-label="λ"
       transform="matrix(1.2256377,0.00943731,-0.00943731,1.2256377,55.664605,-110.08199)"
       id="text4423-2-6"
       style="font-size:120.828px;font-family:'DejaVu Math TeX Gyre';-inkscape-font-specification:'DejaVu Math TeX Gyre, Normal';display:inline;fill:#7c4800;fill-opacity:1;stroke:none;stroke-width:0.2;stroke-dasharray:none;stroke-opacity:1">
      <path
         d="m 99.500159,268.15686 -6.021634,4.30396 -23.561461,-6.28306 6.021635,-4.30396 6.632608,-0.005 -17.112075,-39.9486 -0.829685,6.03966 -14.548041,33.91394 H 60.11023 v 6.28306 l -6.021634,4.30396 -22.856259,-4.30396 -6.021634,-1.9791 6.021634,-4.30396 h 7.128853 l 24.137969,-56.93376 c 0,0 -5.651275,-7.3369 -7.123398,-10.95285 -1.449936,-3.54429 -2.353016,-5.43771 -3.7224,-6.72654 -1.288832,-1.20828 -1.209371,-5.25416 -3.384275,-5.25416 -2.336008,0 -4.067876,0.56387 -5.195604,1.6916 -1.127728,1.28883 -1.81242,3.22207 -2.054076,5.79974 l -6.021635,4.30395 -5.558089,-11.96198 6.021636,-4.30394 c 1.369384,-0.40276 3.342908,-0.8458 5.920572,-1.32911 1.691592,-0.32221 3.584564,-0.48331 5.678916,-0.48331 4.43036,0 7.813544,0.88607 10.149552,2.65821 2.497112,1.8527 4.672016,5.19561 6.524712,10.02873 l 28.757065,73.46342 h 7.008024 z"
         id="path4825-0"
         style="fill:#7c4800;fill-opacity:1;stroke:none;stroke-width:0.2;stroke-dasharray:none;stroke-opacity:1"
         sodipodi:nodetypes="ccccccccccccccccccsccccccsccccc" />
    </g>
    <g
       aria-label="λ"
       transform="matrix(1.2256377,0.00943731,-0.00943731,1.2256377,55.664605,-110.08199)"
       id="text4423-6"
       style="font-size:120.828px;font-family:'DejaVu Math TeX Gyre';-inkscape-font-specification:'DejaVu Math TeX Gyre, Normal';display:inline;fill:#ff9200;fill-opacity:1;stroke:none;stroke-width:0.2;stroke-dasharray:none;stroke-opacity:1">
      <path
         d="M 93.478525,272.46082 H 69.917064 v -6.28306 h 9.424585 L 62.667384,222.80051 44.059872,266.17776 h 10.028724 v 6.28306 H 25.210703 v -6.28306 h 7.128853 L 56.746812,208.5428 51.672036,195.37255 q -2.174904,-5.31643 -4.22898,-7.24968 -1.933248,-1.81242 -5.195604,-1.81242 -3.504012,0 -5.195604,1.69159 -1.691592,1.93325 -2.054076,5.79975 h -5.558089 v -11.96198 q 2.054077,-0.60414 5.920573,-1.3291 2.537388,-0.48332 5.678916,-0.48332 6.64554,0 10.149552,2.65822 3.745668,2.77904 6.524712,10.02872 l 28.757065,73.46343 h 7.008024 z"
         id="path4822-2"
         style="fill:#ff9200;fill-opacity:1;stroke:none;stroke-width:0.2;stroke-dasharray:none;stroke-opacity:1" />
    </g>
    <path
       style="display:inline;fill:#ffffff;fill-opacity:1;stroke:none;stroke-width:0.245135;stroke-dasharray:none;stroke-opacity:1"
       d="m 167.7234,217.03765 7.42095,-5.21823"
       id="path4828-6" />
    <path
       style="display:inline;fill:#ffffff;fill-opacity:1;stroke:none;stroke-width:0.245135;stroke-dasharray:none;stroke-opacity:1"
       d="m 167.66412,224.73845 7.42094,-5.21829"
       id="path4830-1" />
    <path
       style="display:inline;fill:#ffffff;fill-opacity:1;stroke:none;stroke-width:0.245135;stroke-dasharray:none;stroke-opacity:1"
       d="m 159.13411,216.97157 7.42094,-5.21828"
       id="path4832-8" />
    <path
       style="display:inline;fill:#ffffff;fill-opacity:1;stroke:none;stroke-width:0.245135;stroke-dasharray:none;stroke-opacity:1"
       d="m 90.030872,113.06556 7.42094,-5.21828"
       id="path4834-7" />
    <path
       style="display:inline;fill:#ffffff;fill-opacity:1;stroke:none;stroke-width:0.245135;stroke-dasharray:none;stroke-opacity:1"
       d="m 146.26654,211.59708 -7.42095,5.21823"
       id="path4836-9" />
    <path
       style="display:inline;fill:#ffffff;fill-opacity:1;stroke:none;stroke-width:0.245135;stroke-dasharray:none;stroke-opacity:1"
       d="m 96.730202,127.77906 7.420938,-5.21828"
       id="path4838-2" />
    <path
       style="display:inline;fill:#ffffff;fill-opacity:1;stroke:none;stroke-width:0.245135;stroke-dasharray:none;stroke-opacity:1"
       d="m 119.44558,216.66594 7.42099,-5.21824"
       id="path4840-0" />
    <path
       style="display:inline;fill:#ffffff;fill-opacity:1;stroke:none;stroke-width:0.245135;stroke-dasharray:none;stroke-opacity:1"
       d="m 119.38635,224.36672 7.42094,-5.21827"
       id="path4842-2" />
    <path
       style="display:inline;fill:#ffffff;fill-opacity:1;stroke:none;stroke-width:0.245135;stroke-dasharray:none;stroke-opacity:1"
       d="m 91.472721,211.17512 -7.420941,5.21832"
       id="path4844-3" />
    <path
       style="display:inline;fill:#ffffff;fill-opacity:1;stroke:none;stroke-width:0.245135;stroke-dasharray:none;stroke-opacity:1"
       d="m 107.15401,216.57129 7.42095,-5.21823"
       id="path4846-7" />
    <path
       id="path6223-5"
       style="display:inline;fill:#595959;fill-opacity:1;stroke:none;stroke-width:0.269946;stroke-dasharray:none;stroke-opacity:1"
       d="M 81.173544 136.62471 L 72.444878 141.32106 A 4.1999377 14.220772 15.154809 0 1 72.780775 156.14548 A 4.1999377 14.220772 15.154809 0 1 65.009156 168.77365 L 65.116127 175.14794 L 78.004746 175.58925 L 84.872543 152.85317 L 81.173544 136.62471 z M 68.515919 144.52345 L 64.57094 147.73876 L 64.698581 153.85983 A 4.1999377 14.220772 15.154809 0 1 68.515919 144.52345 z " />
    <path
       style="display:inline;fill:#595959;fill-opacity:1;stroke:none;stroke-width:0.269946;stroke-dasharray:none;stroke-opacity:1"
       d="m 102.6969,131.88613 -6.156682,5.2076 -5.128912,-1.3528 5.926499,-5.3063"
       id="path6066-9" />
    <path
       id="path4267-2"
       style="display:inline;fill:#595959;fill-opacity:1;stroke:none;stroke-width:0.269946;stroke-dasharray:none;stroke-opacity:1"
       d="M 65.3111,97.650191 92.796075,94.722611 98.710899,75.294777 72.84464,68.935298 Z"
       sodipodi:nodetypes="ccccc" />
    <path
       style="display:inline;fill:#595959;fill-opacity:1;stroke:none;stroke-width:0.269946;stroke-dasharray:none;stroke-opacity:1"
       d="m 54.796895,221.1069 14.313565,3.87674 1.010807,-15.39829 -16.474397,7.15448 z"
       id="path4247-8" />
    <path
       style="display:inline;fill:#5a5a5a;fill-opacity:1;stroke:none;stroke-width:0.269946;stroke-dasharray:none;stroke-opacity:1"
       d="m 54.435027,67.780329 c -4.97262,4.133658 -10.322396,10.490247 -15.586343,19.410195 0.860866,5.920408 1.699066,11.686207 2.515743,17.302586 -6.081309,10.60947 -11.623769,24.52024 -15.701033,39.53747 -0.161997,0.62909 -0.321331,1.2584 -0.47808,1.88802 l -9.218345,-1.05556 c -3.366644,13.50068 -5.871701,27.04093 -6.9233888,39.25461 l 10.2150058,2.4941 c -0.03422,8.54887 0.994798,15.44862 2.99812,20.12838 l -9.080152,20.17748 c 2.604537,4.55952 9.82203,7.13809 9.82203,7.13809 l 25.866222,6.35951 c 6.582016,-28.65139 9.781226,-58.70861 17.199352,-86.99106 19.886484,-31.51714 5.516183,-30.16811 14.236825,-79.28438 z"
       id="path974-2-3-9"
       sodipodi:nodetypes="ccccccccccccccc" />
    <path
       style="display:inline;fill:#939393;fill-opacity:1;stroke:none;stroke-width:0.269946;stroke-dasharray:none;stroke-opacity:1"
       d="m 79.276447,157.90477 c -2.449575,9.04395 -6.738385,16.02587 -9.680225,15.57912 -3.059573,-0.46439 -3.499208,-8.7265 -0.869269,-18.43642 2.629864,-9.70989 7.178971,-16.62066 10.054757,-15.47766 2.76528,1.09903 2.944275,9.29101 0.494699,18.33496 z M 98.710824,75.294777 c -1.966133,6.458047 -3.937665,12.933929 -5.914749,19.427834 -0.462071,-0.56844 -0.952435,-1.058535 -1.469913,-1.467865 -3.28557,-2.584298 -7.587537,-1.861099 -12.464898,2.32858 L 80.301287,74.13977 c -4.97262,4.133697 -10.322433,10.490286 -15.586381,19.410184 0.860865,5.920427 1.699105,11.686206 2.515744,17.302636 -6.081272,10.60943 -11.623733,24.52025 -15.701034,39.53747 -0.161997,0.62904 -0.321331,1.25836 -0.47808,1.88802 l -9.218345,-1.0556 c -3.366644,13.50069 -5.871702,27.04097 -6.923388,39.25461 3.724977,-3.17008 7.338571,-6.2449 10.846222,-9.23006 -1.368608,14.02083 -0.486104,25.18789 2.366903,31.85255 l -9.080152,20.17751 c 2.604575,4.55948 9.82203,7.13812 9.82203,7.13812 2.096186,-6.88707 4.186478,-13.75551 6.270762,-20.60341 0.618896,0.0817 1.258251,0.0772 1.915936,-0.0114 3.94584,-0.55531 8.468519,-4.14746 13.069458,-10.21451 l -1.010807,15.39833 c 4.168454,-5.94817 8.323749,-13.04276 12.185017,-21.22003 -0.492417,-3.42361 -0.994418,-6.91799 -1.507103,-10.48474 4.563787,-9.42266 8.636144,-20.54583 11.757968,-32.05043 0.129674,-0.48093 0.257826,-0.96289 0.384305,-1.44485 l 4.973,0.46782 c 2.427824,-9.49291 4.470768,-19.18287 5.793218,-28.36523 -2.00603,1.69701 -4.057722,3.43193 -6.156684,5.20762 1.653622,-11.77337 1.901904,-22.42436 0.636008,-30.45936 l 6.788966,-15.132422 c -1.03222,-6.797096 -2.73102,-12.578482 -5.254368,-16.207213 z"
       id="path974-2-7"
       sodipodi:nodetypes="sssssscccccccccccccccccccccccccccss" />
    <path
       style="display:inline;fill:none;fill-opacity:1;stroke:none;stroke-width:0.269946;stroke-dasharray:none;stroke-opacity:1"
       d="m 15.967235,144.86304 25.86626,6.35944"
       id="path4175-3"
       sodipodi:nodetypes="cc" />
    <path
       style="display:inline;fill:none;fill-opacity:1;stroke:none;stroke-width:0.269946;stroke-dasharray:none;stroke-opacity:1"
       d="m 25.18558,145.9186 25.866222,6.35948"
       id="path4177-6"
       sodipodi:nodetypes="cc" />
    <path
       style="display:inline;fill:#ffffff;fill-opacity:1;stroke:none;stroke-width:0.269946;stroke-dasharray:none;stroke-opacity:1"
       d="m 9.0438461,184.11765 25.8662229,6.35944"
       id="path4238-1"
       sodipodi:nodetypes="cc" />
    <path
       style="display:inline;fill:#ffffff;fill-opacity:1;stroke:none;stroke-width:0.269946;stroke-dasharray:none;stroke-opacity:1"
       d="m 22.257011,206.74013 25.866222,6.35945"
       id="path4241-2" />
    <path
       style="display:inline;fill:#ffffff;fill-opacity:1;stroke:none;stroke-width:0.269946;stroke-dasharray:none;stroke-opacity:1"
       d="m 13.17682,226.91761 25.866261,6.35948"
       id="path4243-9" />
    <path
       style="display:inline;fill:#ffffff;fill-opacity:1;stroke:none;stroke-width:0.269946;stroke-dasharray:none;stroke-opacity:1"
       d="m 22.99885,234.0557 25.866222,6.35951"
       id="path4245-3" />
    <path
       style="display:inline;fill:#ffffff;fill-opacity:1;stroke:none;stroke-width:0.269946;stroke-dasharray:none;stroke-opacity:1"
       d="m 102.6969,131.88613 -5.359095,-1.4515"
       id="path4251-1" />
    <path
       style="display:inline;fill:#ffffff;fill-opacity:1;stroke:none;stroke-width:0.269946;stroke-dasharray:none;stroke-opacity:1"
       d="m 41.364427,104.49311 25.866223,6.35948"
       id="path4253-9" />
    <path
       style="display:inline;fill:#ffffff;fill-opacity:1;stroke:none;stroke-width:0.269946;stroke-dasharray:none;stroke-opacity:1"
       d="m 38.848684,87.190524 25.866222,6.35943"
       id="path4255-4" />
    <path
       style="display:inline;fill:#ffffff;fill-opacity:1;stroke:none;stroke-width:0.269946;stroke-dasharray:none;stroke-opacity:1"
       d="m 54.435027,67.780329 25.86626,6.359441"
       id="path4265-7" />
  </g>
</svg>
