<svg xmlns="http://www.w3.org/2000/svg" viewBox="0 0 190.29 172.63"><path fill="#595959" d="m123.94 1.24-5.61 1.44s-8.87 5.24-12.43 8.27l7.92 9.73a39.05 39.05 0 0 0-12.77 19.8l-.22.98-12.32-2.68a54.14 54.14 0 0 0-1.14 7.71 57.51 57.51 0 0 0-.14 6.53 48.57 48.57 0 0 0 .67 6.24l12.38-2A39.05 39.05 0 0 0 111.8 78.9l-8.48 9.33c3.82 3.5 11.82 12.22 11.82 12.22l5.6-1.45 4.46-11.7a39.05 39.05 0 0 0 24.52.85l-1.78 13.43 5.6-1.44c6.47-2.05 13.1-5.51 18.04-9.7l-7.92-9.74a39.05 39.05 0 0 0 13.02-20.78l6.68 4.12 5.6-1.45c1.46-6.62 1.78-14.1.62-20.47l-12.35 1.98a39.05 39.05 0 0 0-11.53-21.65l8.46-9.3c-5-4.58-11.32-8.6-17.42-10.78l-5.61 1.45 1.15 10.25a39.04 39.04 0 0 0-24.51-.85l-3.83-11.98zm16.8 37.19a11.67 11.67 0 0 1 3.46.4 11.67 11.67 0 0 1 8.21 14.3 11.67 11.67 0 0 1-14.3 8.21 11.67 11.67 0 0 1-8.22-14.3 11.67 11.67 0 0 1 10.86-8.61z" class="UnoptimicedTransforms"/><path fill="#949494" d="M143.23 54.87a10.47 10.47 0 0 1-12.83 7.37 10.47 10.47 0 0 1-7.37-12.84 10.47 10.47 0 0 1 12.84-7.37 10.47 10.47 0 0 1 7.36 12.84zm7.9-51.05-4.45 11.7a39.05 39.05 0 0 0-3.34-1.08 39.05 39.05 0 0 0-21.18.23l-3.83-11.99c-6.46 2.05-13.1 5.51-18.04 9.71l7.92 9.73a39.05 39.05 0 0 0-12.77 19.8 39.05 39.05 0 0 0-.22.99l-12.31-2.68a53.03 53.03 0 0 0-.88 5.1l-.15 1.3a53.61 53.61 0 0 0-.26 3.93 57.08 57.08 0 0 0 .17 6.46 48.55 48.55 0 0 0 .5 3.69l12.39-2a39.05 39.05 0 0 0 11.51 21.64l-8.48 9.33c5 4.57 11.32 8.59 17.42 10.77l4.46-11.7a39.05 39.05 0 0 0 3.33 1.08 39.05 39.05 0 0 0 21.18-.23l3.83 11.98c6.47-2.04 13.1-5.5 18.04-9.7l-7.92-9.73a39.05 39.05 0 0 0 12.77-19.8 39.05 39.05 0 0 0 .25-.98l12.29 2.67c1.46-6.62 1.78-14.1.6-20.48l-12.34 2a39.05 39.05 0 0 0-11.53-21.67l8.46-9.3c-5-4.57-11.32-8.59-17.42-10.77z"/><path fill="#7c4800" d="m99.5 268.16-6.02 4.3-23.56-6.28 6.02-4.3 6.63-.01-17.11-39.95-.83 6.04-14.55 33.91h10.03v6.29l-6.02 4.3-22.86-4.3-6.02-1.98 6.02-4.3h7.13l24.14-56.94s-5.65-7.34-7.12-10.95c-1.45-3.55-2.36-5.44-3.73-6.73-1.29-1.2-1.2-5.25-3.38-5.25-2.34 0-4.07.56-5.2 1.69-1.12 1.29-1.8 3.22-2.05 5.8L35 193.8l-5.56-11.96 6.02-4.3c1.37-.4 3.34-.85 5.92-1.33a29.9 29.9 0 0 1 5.68-.49c4.43 0 7.81.89 10.15 2.66 2.5 1.85 4.67 5.2 6.53 10.03l28.75 73.46h7.01z" aria-label="λ" font-family="DejaVu Math TeX Gyre" font-size="120.83" style="-inkscape-font-specification:&quot;DejaVu Math TeX Gyre, Normal&quot;" transform="rotate(.44 23122.9 5965.9) scale(1.22567403)"/><path fill="#ff9200" d="M93.48 272.46H69.92v-6.28h9.42L62.67 222.8l-18.61 43.38h10.03v6.28H25.2v-6.28h7.13l24.4-57.64-5.07-13.17q-2.17-5.31-4.23-7.25-1.93-1.81-5.2-1.81-3.5 0-5.19 1.7-1.69 1.93-2.05 5.8h-5.56v-11.97q2.05-.6 5.92-1.33 2.54-.48 5.68-.48 6.64 0 10.15 2.66 3.74 2.77 6.52 10.02l28.76 73.47h7z" aria-label="λ" font-family="DejaVu Math TeX Gyre" font-size="120.83" style="-inkscape-font-specification:&quot;DejaVu Math TeX Gyre, Normal&quot;" transform="rotate(.44 23122.9 5965.9) scale(1.22567403)"/><path fill="#fff" d="m158.68 149.26 7.42-5.22m-7.48 12.92 7.42-5.22m-15.94-2.54 7.41-5.23M80.99 45.29l7.42-5.22m48.81 103.75-7.42 5.21M87.69 60l7.42-5.22m15.29 94.11 7.42-5.22m-7.48 12.92 7.42-5.22m-35.33-7.97L75 148.6m23.11.2 7.42-5.23"/><path fill="#595959" d="m72.13 68.84-8.73 4.7a4.2 14.22 15.15 0 1 .34 14.83 4.2 14.22 15.15 0 1-7.77 12.62l.1 6.38 12.9.44 6.86-22.74-3.7-16.23zm-12.66 7.9-3.94 3.22.13 6.12a4.2 14.22 15.15 0 1 3.81-9.34zM93.65 64.1l-6.15 5.21-5.13-1.35 5.92-5.3M56.27 29.87l27.48-2.93 5.92-19.43L63.8 1.15ZM45.75 153.33l14.32 3.87 1-15.4-16.47 7.16z"/><path fill="#5a5a5a" d="M45.4 0c-4.98 4.13-10.33 10.49-15.6 19.41l2.52 17.3c-6.08 10.61-11.62 24.52-15.7 39.54l-.48 1.89-9.22-1.06C3.56 90.58 1.05 104.12 0 116.34l10.22 2.5c-.04 8.54.99 15.44 3 20.12l-9.09 20.18c2.6 4.56 9.83 7.14 9.83 7.14l25.86 6.35c6.58-28.65 9.78-58.7 17.2-86.99 19.89-31.51 5.52-30.16 14.24-79.28z"/><path fill="#939393" d="M70.23 90.12c-2.45 9.05-6.74 16.03-9.68 15.58-3.06-.46-3.5-8.72-.87-18.43 2.63-9.71 7.18-16.62 10.06-15.48 2.76 1.1 2.94 9.29.5 18.33zm19.44-82.6-5.92 19.42a9.5 9.5 0 0 0-1.47-1.47C79 22.9 74.7 23.61 69.82 27.8l1.44-21.44c-4.97 4.13-10.32 10.49-15.59 19.41l2.52 17.3C52.1 53.68 46.56 67.6 42.49 82.61L42 84.5l-9.22-1.06c-3.37 13.5-5.87 27.04-6.92 39.26l10.84-9.23c-1.37 14.02-.48 25.18 2.37 31.85L30 165.5c2.6 4.56 9.82 7.13 9.82 7.13l6.27-20.6c.62.08 1.26.08 1.92-.01 3.94-.56 8.47-4.15 13.07-10.21l-1.01 15.4a144.83 144.83 0 0 0 12.18-21.23c-.5-3.42-1-6.91-1.5-10.48A187.8 187.8 0 0 0 82.88 92l4.97.47a275.7 275.7 0 0 0 5.8-28.36l-6.16 5.2c1.65-11.77 1.9-22.42.63-30.46l6.8-15.13c-1.04-6.8-2.74-12.58-5.26-16.2z"/><path fill="#fff" d="m0 116.34 25.87 6.36m-12.66 16.26 25.87 6.36M4.13 159.14 30 165.5m-16.04.78 25.86 6.35M93.65 64.1l-5.36-1.45M32.32 36.71l25.87 6.36M29.8 19.41l25.87 6.36M45.4 0l25.86 6.36"/></svg>